<?xml version="1.0" standalone="no"?>
<!DOCTYPE svg PUBLIC "-//W3C//DTD SVG 20010904//EN"
 "http://www.w3.org/TR/2001/REC-SVG-20010904/DTD/svg10.dtd">
<svg version="1.0" xmlns="http://www.w3.org/2000/svg"
 width="512.000000pt" height="512.000000pt" viewBox="0 0 512.000000 512.000000"
 preserveAspectRatio="xMidYMid meet">
<metadata>
Created by potrace 1.16, written by Peter Selinger 2001-2019
</metadata>
<g transform="translate(0.000000,512.000000) scale(0.100000,-0.100000)"
fill="#000000" stroke="none">
<path d="M1028 4213 l122 -4 0 -584 0 -585 -120 0 -120 0 0 -1075 0 -1075 125
0 125 0 2 773 3 772 378 3 377 2 -2 793 c-2 570 -4 654 -5 300 l-3 -493 -110
0 -110 0 -2 273 c-2 223 -4 191 -8 -183 l-5 -455 -65 0 -65 0 -5 515 c-5 464
-6 482 -8 183 l-2 -333 -115 0 -115 0 0 585 0 584 123 4 122 3 -127 2 -128 2
-2 -772 -3 -773 -60 0 -60 0 -3 773 -2 772 -128 -2 -127 -2 123 -3z"/>
<path d="M2548 4213 l122 -4 0 -584 0 -585 -115 0 -115 0 -2 528 c-2 290 -5
-44 -8 -743 l-5 -1270 -65 0 -65 0 -5 900 c-3 495 -6 829 -8 743 l-2 -158
-105 0 -105 0 -3 178 c-1 97 -4 -387 -5 -1075 l-2 -1253 115 0 115 0 2 208 3
207 388 3 387 2 0 708 c0 389 -3 778 -7 865 l-6 157 -113 0 -113 0 -4 73 c-1
39 -4 -290 -5 -733 -1 -443 -6 -811 -11 -818 -5 -9 -26 -12 -67 -10 l-59 3 -3
1333 -2 1332 -128 -2 -127 -2 123 -3z"/>
<path d="M3182 4088 l2 -133 3 128 4 127 309 0 310 0 0 -585 0 -585 -114 0
-115 0 -4 53 c-2 28 -4 -370 -5 -886 l-2 -937 318 2 317 3 0 1470 0 1470 -128
0 -127 1 125 -3 125 -4 0 -584 0 -585 -120 0 -120 0 -3 343 c-1 188 -3 -149
-5 -749 -1 -832 -5 -1093 -14 -1102 -13 -13 -75 -16 -102 -6 -14 6 -16 134
-16 1350 l0 1344 -320 0 -320 0 2 -132z"/>
<path d="M3182 2503 l-2 -1323 -375 0 -375 0 0 -145 0 -145 500 0 500 0 -2
1148 c-1 631 -4 1114 -5 1075 l-4 -73 -114 0 -115 0 -3 393 c-1 215 -3 -203
-5 -930z"/>
<path d="M1290 1785 l0 -505 315 0 315 0 0 505 0 505 -120 0 -120 0 0 -373 c0
-277 -3 -376 -12 -385 -7 -7 -33 -12 -58 -12 -25 0 -51 5 -58 12 -9 9 -12 108
-12 385 l0 373 -125 0 -125 0 0 -505z"/>
<path d="M1290 1020 l0 -130 125 0 125 0 0 130 0 130 -125 0 -125 0 0 -130z"/>
<path d="M1680 1020 l0 -130 120 0 120 0 0 130 0 130 -120 0 -120 0 0 -130z"/>
<path d="M3570 1020 l0 -130 130 0 130 0 0 130 0 130 -130 0 -130 0 0 -130z"/>
<path d="M3950 1020 l0 -131 128 3 127 3 3 128 3 127 -131 0 -130 0 0 -130z"/>
</g>
</svg>
